<!-- public/images/wave.svg -->
<svg xmlns="http://www.w3.org/2000/svg" viewBox="0 0 1440 320" preserveAspectRatio="none">
  <path fill="#4b7f74" fill-opacity="0.3" d="M0,128L48,144C96,160,192,192,288,197.3C384,203,480,181,576,154.7C672,128,768,96,864,96C960,96,1056,128,1152,133.3C1248,139,1344,117,1392,106.7L1440,96L1440,320L1392,320C1344,320,1248,320,1152,320C1056,320,960,320,864,320C768,320,672,320,576,320C480,320,384,320,288,320C192,320,96,320,48,320L0,320Z"></path>
  <path fill="#2d8b61" fill-opacity="0.2" d="M0,192L48,170.7C96,149,192,107,288,101.3C384,96,480,128,576,138.7C672,149,768,139,864,154.7C960,171,1056,213,1152,202.7C1248,192,1344,128,1392,96L1440,64L1440,320L1392,320C1344,320,1248,320,1152,320C1056,320,960,320,864,320C768,320,672,320,576,320C480,320,384,320,288,320C192,320,96,320,48,320L0,320Z"></path>
</svg>
